<?xml version="1.0" encoding="UTF-8" standalone="no"?>
<svg
   xmlns:dc="http://purl.org/dc/elements/1.1/"
   xmlns:cc="http://creativecommons.org/ns#"
   xmlns:rdf="http://www.w3.org/1999/02/22-rdf-syntax-ns#"
   xmlns:svg="http://www.w3.org/2000/svg"
   xmlns="http://www.w3.org/2000/svg"
   viewBox="750 875 2500 2500"
   height="4000"
   width="4000"
   xml:space="preserve"
   id="svg833"
   version="1.1"><metadata
     id="metadata839"><rdf:RDF><cc:Work
         rdf:about=""><dc:format>image/svg+xml</dc:format><dc:type
           rdf:resource="http://purl.org/dc/dcmitype/StillImage" /><dc:title></dc:title></cc:Work></rdf:RDF></metadata><defs
     id="defs837" /><g
     style="display:inline"
     transform="matrix(-1.3333333,0,0,-1.3333333,4000.0067,4000)"
     id="g841"><g
       style="display:inline"
       transform="scale(0.1)"
       id="g843"><g
         style="display:inline"
         transform="scale(1.38037)"
         id="g849"><path
           id="path851"
           style="fill:#6c1d2e;fill-opacity:1;fill-rule:nonzero;stroke:none"
           d="m 15483.2,10064.2 c 650.3,367.1 816.8,1063.2 816.8,1063.2 0,0 -850.2,302.7 -1598.8,-41.6 -273,-125.5 -471.2,-309 -612.9,-491.4 -578.6,629 -1695.7,1593.4 -3105.1,1593.4 -253.7,0 -497.9,-31.4 -731.2,-86.3 243.4,-621.5 372.6,-1316.3 372.6,-2037.3 0,-720.97 -129.2,-1415.85 -372.6,-2037.28 233.3,-54.92 477.5,-86.28 731.2,-86.28 1409.4,0 2526.5,964.38 3105.1,1593.34 141.7,-182.42 339.9,-365.84 612.9,-491.39 748.6,-344.33 1598.8,-41.59 1598.8,-41.59 0,0 -166.5,696.12 -816.8,1063.2" /></g><g
         style="display:inline"
         transform="scale(1.01917)"
         id="g853"><path
           id="path855"
           style="fill:#c2182a;fill-opacity:1;fill-rule:nonzero;stroke:none"
           d="m 12373.4,14142 c -188.6,0 -341.5,152.8 -341.5,341.3 0,188.6 152.9,341.5 341.5,341.5 188.4,0 341.3,-152.9 341.3,-341.5 0,-188.5 -152.9,-341.3 -341.3,-341.3 z m 1182.9,2158 c -1264,-396.3 -2263,-1279.6 -2859.3,-1921.9 396.3,-467.6 592.8,-801 592.8,-801 0,0 -362.7,-141 -966.5,-263.1 480.3,-593 1648.6,-1855.1 3233,-2351.9 316.1,794.8 495.9,1703.8 495.9,2669 0,965.1 -179.8,1874.1 -495.9,2668.9" /></g><g
         style="display:inline"
         transform="scale(1.16804)"
         id="g857"><path
           id="path859"
           style="fill:#2a2734;fill-opacity:1;fill-rule:nonzero;stroke:none"
           d="m 7007.8,15421.3 c -160.98,0 -291.94,131 -291.94,291.9 0,161 130.96,291.9 291.94,291.9 160.98,0 291.95,-130.9 291.95,-291.9 0,-160.9 -130.97,-291.9 -291.95,-291.9 z M 8276.56,12224 c -68.15,-239.4 -288.83,-415.2 -549.81,-415.2 -315.14,0 -571.53,256.4 -571.53,571.5 v 2764.9 c 252.42,65.6 439.34,295.4 439.34,568 0,323.5 -263.21,586.8 -586.76,586.8 -323.54,0 -586.77,-263.3 -586.77,-586.8 0,-272.6 186.93,-502.4 439.36,-568 v -1291.4 h -234.24 l 234.24,-451.8 v -27.6 h -234.24 l 234.24,-451.7 v -27.6 h -234.24 l 234.24,-451.7 v -63.1 c 0,-477.7 388.65,-866.3 866.36,-866.3 477.71,0 866.39,388.6 866.39,866.3 v 1253.3 L 7908.43,12224 h 368.13" /></g></g></g></svg>
